<svg width="40" height="40" viewBox="0 0 40 40" fill="none" xmlns="http://www.w3.org/2000/svg">
<path d="M30.0576 14.9449C29.9381 14.5009 29.7041 14.0961 29.3789 13.771C29.0538 13.4459 28.649 13.2119 28.2051 13.0924C26.5701 12.6499 20.0001 12.6499 20.0001 12.6499C20.0001 12.6499 13.4301 12.6499 11.7951 13.0924C11.3511 13.2119 10.9463 13.4459 10.6212 13.771C10.2961 14.0961 10.0621 14.5009 9.94258 14.9449C9.63729 16.6124 9.48914 18.3048 9.50008 19.9999C9.48914 21.695 9.63729 23.3875 9.94258 25.0549C10.0621 25.4989 10.2961 25.9037 10.6212 26.2288C10.9463 26.5539 11.3511 26.7879 11.7951 26.9074C13.4301 27.3499 20.0001 27.3499 20.0001 27.3499C20.0001 27.3499 26.5701 27.3499 28.2051 26.9074C28.649 26.7879 29.0538 26.5539 29.3789 26.2288C29.7041 25.9037 29.9381 25.4989 30.0576 25.0549C30.3629 23.3875 30.511 21.695 30.5001 19.9999C30.511 18.3048 30.3629 16.6124 30.0576 14.9449ZM17.9001 23.1499V16.8499L23.3526 19.9999L17.9001 23.1499Z" fill="white"/>
</svg>
